<svg width="800" height="600" xmlns="http://www.w3.org/2000/svg">

 <g>
  <title>Layer 1</title>
  <line stroke-linecap="undefined" stroke-linejoin="undefined" id="svg_4" y2="176" x2="546" y1="432" x1="190" stroke="#000" fill="none"/>
  <path transform="rotate(98.422 298.101 354.013)" stroke="#000" id="svg_5" d="m251.92915,377.76287l23.08582,-23.75l0,11.875l34.62868,0l0,-35.62499l-11.5429,0l23.0858,-23.75l23.0858,23.75l-11.5429,0l0,59.37499l-57.71448,0l0,11.875l-23.08582,-23.75l0,0z" fill="#bf5f00"/>
  <path transform="rotate(98.422 357.101 312.013)" stroke="#000" id="svg_6" d="m310.92915,335.76287l23.08582,-23.75l0,11.875l34.62868,0l0,-35.625l-11.5429,0l23.0858,-23.74999l23.0858,23.74999l-11.5429,0l0,59.375l-57.71448,0l0,11.87499l-23.08581,-23.74999l-0.00001,0z" fill="#bfbf00"/>
  <path transform="rotate(98.422 412.101 272.013)" stroke="#000" id="svg_7" d="m365.92915,295.76287l23.08582,-23.75l0,11.875l34.62868,0l0,-35.625l-11.5429,0l23.0858,-23.74999l23.0858,23.74999l-11.5429,0l0,59.375l-57.71448,0l0,11.87499l-23.08581,-23.74999l-0.00001,0z" fill="#7f7f7f"/>
  <path transform="rotate(99.7407 471.101 231.013)" stroke="#000" id="svg_8" d="m424.92915,254.76287l23.08582,-23.75l0,11.875l34.62868,0l0,-35.625l-11.5429,0l23.0858,-23.74999l23.0858,23.74999l-11.5429,0l0,59.375l-57.71448,0l0,11.87499l-23.08581,-23.74999l-0.00001,0z" fill="#5fbf00"/>
  <path transform="rotate(99.7407 529.101 190.013)" stroke="#000" id="svg_10" d="m482.92915,213.76287l23.08582,-23.75l0,11.875l34.62868,0l0,-35.625l-11.5429,0l23.0858,-23.74999l23.0858,23.74999l-11.5429,0l0,59.375l-57.71448,0l0,11.87499l-23.08581,-23.74999l-0.00001,0z" fill="#007f00"/>
  <path transform="rotate(-32.9886 575.925 157.335)" id="svg_12" d="m529.42507,157.33501l46.5,-22l46.5,22l-46.5,22l-46.5,-22z" stroke="#000" fill="#000000"/>
 </g>
</svg>